<svg xmlns="http://www.w3.org/2000/svg" xmlns:xlink="http://www.w3.org/1999/xlink" viewBox="0 0 162.98 55.93"><defs><style>.cls-1{fill:url(#Degradado_sin_nombre_6);}.cls-2{fill:url(#Degradado_sin_nombre_2);}.cls-3{fill:url(#Degradado_sin_nombre_2-2);}.cls-4{fill:#eec700;}.cls-5{fill:url(#Degradado_sin_nombre_52);}.cls-6{fill:url(#Degradado_sin_nombre_52-2);}.cls-7{clip-path:url(#clip-path);}.cls-8{fill:#fff;}.cls-9{fill:#43719f;}.cls-10{fill:url(#Degradado_sin_nombre_96);}.cls-11,.cls-17{opacity:0.8;}.cls-11{fill:url(#Degradado_sin_nombre_92);}.cls-12{fill:url(#Degradado_sin_nombre_14);}.cls-13{fill:url(#Degradado_sin_nombre_14-2);}.cls-14{fill:url(#Degradado_sin_nombre_13);}.cls-15{fill:url(#Degradado_sin_nombre_14-3);}.cls-16{fill:url(#Degradado_sin_nombre_2-3);}.cls-17{fill:url(#Degradado_sin_nombre_14-4);}.cls-18{fill:url(#Degradado_sin_nombre_52-3);}.cls-19{fill:url(#Degradado_sin_nombre_2-4);}.cls-20{fill:url(#Degradado_sin_nombre_52-4);}.cls-21{fill:url(#Degradado_sin_nombre_52-5);}.cls-22{fill:none;}</style><linearGradient id="Degradado_sin_nombre_6" x1="-570.01" y1="46.72" x2="-508.53" y2="46.72" gradientTransform="matrix(1, 0, 0, -1, 609.76, 93.44)" gradientUnits="userSpaceOnUse"><stop offset="0" stop-color="#eec700"/><stop offset="1" stop-color="#fff"/></linearGradient><linearGradient id="Degradado_sin_nombre_2" x1="-408.59" y1="246.76" x2="-445.52" y2="272.99" gradientTransform="translate(-244.11 -392.74) rotate(-90)" gradientUnits="userSpaceOnUse"><stop offset="0" stop-color="#eec700"/><stop offset="1" stop-color="#e2a900"/></linearGradient><linearGradient id="Degradado_sin_nombre_2-2" x1="-446.33" y1="263.2" x2="-392.74" y2="263.2" xlink:href="#Degradado_sin_nombre_2"/><radialGradient id="Degradado_sin_nombre_52" cx="-440.55" cy="263.71" r="23.06" gradientTransform="matrix(0, -1.01, 1, 0, -245.51, -417.73)" gradientUnits="userSpaceOnUse"><stop offset="0" stop-color="#fff"/><stop offset="0.12" stop-color="#fff" stop-opacity="0.98"/><stop offset="0.24" stop-color="#fff" stop-opacity="0.94"/><stop offset="0.36" stop-color="#fff" stop-opacity="0.85"/><stop offset="0.48" stop-color="#fff" stop-opacity="0.74"/><stop offset="0.6" stop-color="#fff" stop-opacity="0.59"/><stop offset="0.73" stop-color="#fff" stop-opacity="0.42"/><stop offset="0.85" stop-color="#fff" stop-opacity="0.21"/><stop offset="0.96" stop-color="#fff" stop-opacity="0"/></radialGradient><radialGradient id="Degradado_sin_nombre_52-2" cx="-459.3" cy="279.26" r="0.03" xlink:href="#Degradado_sin_nombre_52"/><clipPath id="clip-path"><rect class="cls-1" x="39.76" y="46.19" width="61.48" height="1.06" transform="translate(140.99 93.44) rotate(-180)"/></clipPath><linearGradient id="Degradado_sin_nombre_96" x1="111.02" y1="48.31" x2="114.81" y2="54.45" gradientUnits="userSpaceOnUse"><stop offset="0" stop-color="#4f8ec9"/><stop offset="1" stop-color="#000012"/></linearGradient><linearGradient id="Degradado_sin_nombre_92" x1="105.13" y1="53.05" x2="116" y2="53.05" gradientUnits="userSpaceOnUse"><stop offset="0" stop-color="#4f8ec9"/><stop offset="1" stop-color="#00263e"/></linearGradient><linearGradient id="Degradado_sin_nombre_14" x1="107.47" y1="50.51" x2="116.87" y2="50.56" gradientUnits="userSpaceOnUse"><stop offset="0" stop-color="#508ec9"/><stop offset="1" stop-color="#002035"/></linearGradient><linearGradient id="Degradado_sin_nombre_14-2" x1="110.44" y1="49.46" x2="114.5" y2="56.01" xlink:href="#Degradado_sin_nombre_14"/><linearGradient id="Degradado_sin_nombre_13" x1="115.23" y1="46.21" x2="107.72" y2="38.39" gradientUnits="userSpaceOnUse"><stop offset="0" stop-color="#4f8ec9"/><stop offset="1" stop-color="#002035"/></linearGradient><linearGradient id="Degradado_sin_nombre_14-3" x1="116.57" y1="44.58" x2="107.24" y2="36.53" xlink:href="#Degradado_sin_nombre_14"/><linearGradient id="Degradado_sin_nombre_2-3" x1="114.37" y1="42.2" x2="103.45" y2="49.95" gradientTransform="matrix(1, 0, 0, 1, 0, 0)" xlink:href="#Degradado_sin_nombre_2"/><linearGradient id="Degradado_sin_nombre_14-4" x1="105.98" y1="46.01" x2="117.06" y2="46.01" xlink:href="#Degradado_sin_nombre_14"/><radialGradient id="Degradado_sin_nombre_52-3" cx="83.58" cy="42.89" r="3.23" gradientTransform="translate(24.99 -1.39) scale(1.01 1)" xlink:href="#Degradado_sin_nombre_52"/><linearGradient id="Degradado_sin_nombre_2-4" x1="103.21" y1="47.06" x2="119.06" y2="47.06" gradientTransform="matrix(1, 0, 0, 1, 0, 0)" xlink:href="#Degradado_sin_nombre_2"/><radialGradient id="Degradado_sin_nombre_52-4" cx="85.3" cy="48.28" r="6.82" gradientTransform="translate(24.99 -1.39) scale(1.01 1)" xlink:href="#Degradado_sin_nombre_52"/><radialGradient id="Degradado_sin_nombre_52-5" cx="79.76" cy="52.88" r="0.01" gradientTransform="translate(24.99 -1.39) scale(1.01 1)" xlink:href="#Degradado_sin_nombre_52"/></defs><title>cmsuniversidad-logo</title><g id="Capa_2" data-name="Capa 2"><g id="banner"><path class="cls-2" d="M.83,22.72A7.54,7.54,0,0,0,1.45,28c.16.32,2.45,5.29,2.62,5.6a71.75,71.75,0,0,0,6,9.71c3.15,4.27,6.24,7.29,8.91,8.94a10.6,10.6,0,0,0,2.7,1.23,3.29,3.29,0,0,0,.45.08h0a10.64,10.64,0,0,0,1.47.09h0l.7-.11h0l.69-.21a26.65,26.65,0,0,0,4.38-1.82A27.3,27.3,0,0,0,34.58,48l.31-.27,1.49-1.44a3.25,3.25,0,0,1-1.71,1,4.79,4.79,0,0,1-2.26-.13,10.45,10.45,0,0,1-2.62-1.2c-2.6-1.6-5.6-4.54-8.66-8.69a69.24,69.24,0,0,1-5.8-9.44c-.16-.25-.32-.49-.48-.71-.8-1.35-1.77-2.93-2.4-4a43.74,43.74,0,0,0-2.61-3.93C6,16.58,1.77,19.24.83,22.72Z"/><path class="cls-3" d="M12.56,0,11.09.32A26.24,26.24,0,0,0,6.62,1.69c-.74.31-1.41.57-2.14.91A48.67,48.67,0,0,0,.18,5.45L.53,5.3c.56-.32,1.25-.74,1.61-.89A18.74,18.74,0,0,1,6,3.25L7.44,3c2.67-.41,6.6,2,10.84,6.91.82,1,1.66,2,2.51,3.15C28.68,23.74,34,38.48,32.69,46a6.09,6.09,0,0,1-1.42,3.23,18.44,18.44,0,0,1-5.69,4,28.6,28.6,0,0,0,3.75-1.62A27.26,27.26,0,0,0,34.58,48l.25-.22c-.48.41-1.8,1.44.07-.06l1.49-1.44A6.09,6.09,0,0,0,37.8,43c1.32-7.48-4-22.23-11.9-32.93C25.07,9,24.23,7.91,23.4,7,19.16,2,15.23-.37,12.56,0Z"/><path class="cls-4" d="M7.44,3,6,3.25A18.74,18.74,0,0,0,2.14,4.41c-.36.15-1.05.57-1.61.89L0,5.58C2.53,5,6.12,6.83,10.2,11.22l.58.64.49.56q1.27,1.47,2.58,3.24C22,26.68,27.45,41.84,26.1,49.54a11,11,0,0,1-1.71,4h0l.11,0,.43-.13.63-.21a18.44,18.44,0,0,0,5.69-4A6.09,6.09,0,0,0,32.69,46c1.32-7.48-4-22.23-11.9-32.93-.84-1.14-1.68-2.19-2.51-3.15C14,5,10.12,2.56,7.44,3Z"/><path class="cls-5" d="M12.57.19,11.1.46A26.24,26.24,0,0,0,6.63,1.83c-.74.31-1.41.57-2.14.91A48.67,48.67,0,0,0,.19,5.59l.35-.15L0,5.73C2.54,5.14,6.13,7,10.22,11.36l.58.64.49.56Q12.57,14,13.87,15.8C22,26.82,27.46,42,26.11,49.68a11,11,0,0,1-1.71,4h0l-.2.07.07,0h0l.23-.07a8.5,8.5,0,0,0,1.06-.34,28.6,28.6,0,0,0,3.75-1.62,27.26,27.26,0,0,0,5.25-3.57l.25-.22c-.48.41-1.8,1.44.07-.06L36.4,46.4a6.09,6.09,0,0,0,1.42-3.23c1.32-7.48-4-22.23-11.9-32.93-.84-1.14-1.68-2.19-2.51-3.15C19.17,2.18,15.25-.23,12.57.19Z"/><path class="cls-6" d="M34.64,45.83l-.07.06Z"/><rect class="cls-1" x="39.76" y="46.19" width="61.48" height="1.06" transform="translate(140.99 93.44) rotate(-180)"/><g class="cls-7"><rect class="cls-1" x="39.76" y="46.19" width="61.48" height="1.06" transform="translate(140.99 93.44) rotate(-180)"/></g><path class="cls-8" d="M34.5,17.24a2.48,2.48,0,0,0-.48-.11,4.84,4.84,0,0,0-1.25,0,2.64,2.64,0,0,0-.47.11,1.08,1.08,0,0,0-.76,1V28a5.2,5.2,0,0,1-.22,1.62,2.86,2.86,0,0,1-.59,1.05,2.3,2.3,0,0,1-.91.6,3.87,3.87,0,0,1-1.36.22,3.71,3.71,0,0,1-1.33-.22,2.45,2.45,0,0,1-.93-.62,2.86,2.86,0,0,1-.61-1.07,5.44,5.44,0,0,1-.23-1.68V18.29a1.09,1.09,0,0,0-.74-1,2.47,2.47,0,0,0-.49-.11,4.37,4.37,0,0,0-.62,0,4.26,4.26,0,0,0-.64,0,2.66,2.66,0,0,0-.46.11,1.08,1.08,0,0,0-.76,1v9.88A8.19,8.19,0,0,0,22.12,31a5.74,5.74,0,0,0,1.39,2.16,5.89,5.89,0,0,0,2.15,1.3,13.14,13.14,0,0,0,3.41.43,4.59,4.59,0,0,0,2.1-.45,5.93,5.93,0,0,0,2.22-1.38,6.12,6.12,0,0,0,1.4-2.21A8.19,8.19,0,0,0,35.25,28V18.29a1.08,1.08,0,0,0-.22-.65A1.16,1.16,0,0,0,34.5,17.24Z"/><path class="cls-8" d="M51,16.88a2.26,2.26,0,0,0-.72-.2,6.91,6.91,0,0,0-1.33,0,2.34,2.34,0,0,0-.68.18,1.63,1.63,0,0,0-.68.54,1.52,1.52,0,0,0-.28.89v7.55l-.09-.17-3.75-7a6.38,6.38,0,0,0-.48-.79,3,3,0,0,0-.66-.67,2.55,2.55,0,0,0-.87-.4,3.81,3.81,0,0,0-.92-.1h-1a2.26,2.26,0,0,0-1.36.46,2,2,0,0,0-.78,1.7V33.63a1.55,1.55,0,0,0,1,1.46,2.88,2.88,0,0,0,.57.14,5.54,5.54,0,0,0,1.41,0,3.05,3.05,0,0,0,.55-.13A1.55,1.55,0,0,0,42,33.63V25.51L46,33a7.55,7.55,0,0,0,.57.95,3.69,3.69,0,0,0,.68.73,2.54,2.54,0,0,0,.93.48,3.48,3.48,0,0,0,.91.11h.7a2.45,2.45,0,0,0,.69-.1A2.07,2.07,0,0,0,51.75,34a2.21,2.21,0,0,0,.2-1V18.3a1.5,1.5,0,0,0-.27-.87A1.63,1.63,0,0,0,51,16.88Z"/><path class="cls-8" d="M57.28,16.79a3.11,3.11,0,0,0-.55-.13,5.23,5.23,0,0,0-1.38,0,3.37,3.37,0,0,0-.55.13,1.6,1.6,0,0,0-.79.56,1.53,1.53,0,0,0-.3.92V33.63a1.53,1.53,0,0,0,1.06,1.47,3.08,3.08,0,0,0,.57.13,5.46,5.46,0,0,0,1.39,0,3.07,3.07,0,0,0,.55-.13,1.53,1.53,0,0,0,1.06-1.47V18.26a1.53,1.53,0,0,0-1.06-1.47Z"/><path class="cls-8" d="M73,16.66a5.8,5.8,0,0,0-.78,0l-.7,0a2.44,2.44,0,0,0-.7.15,1.56,1.56,0,0,0-.79.67,2,2,0,0,0-.19.45l-3.3,9.95-3.42-10a2.3,2.3,0,0,0-.24-.46,1.65,1.65,0,0,0-.69-.56,2.25,2.25,0,0,0-.71-.17l-.66,0c-.33,0-.6,0-.79,0A1.89,1.89,0,0,0,59,17a1.53,1.53,0,0,0-.59,1.28,2.65,2.65,0,0,0,.18.81L63.82,34a2.09,2.09,0,0,0,.19.4,1.63,1.63,0,0,0,.48.49,1.89,1.89,0,0,0,.53.24l.4.09a3.94,3.94,0,0,0,.52,0h.51l.69,0a3,3,0,0,0,.69-.12,1.83,1.83,0,0,0,.74-.44A1.86,1.86,0,0,0,69,34l5.22-14.86a3.23,3.23,0,0,0,.19-.73A1.55,1.55,0,0,0,74,17.16,1.71,1.71,0,0,0,73,16.66Z"/><path class="cls-8" d="M85.6,31.75a1.67,1.67,0,0,0-.57-.59,1.59,1.59,0,0,0-.83-.23H79.1V27.7h4.12a1.59,1.59,0,0,0,1.4-.82,2,2,0,0,0,.23-.68,3.9,3.9,0,0,0,0-.57,4.21,4.21,0,0,0,0-.58,2,2,0,0,0-.23-.71,1.69,1.69,0,0,0-.51-.56,1.56,1.56,0,0,0-.89-.28H79.1V21h5A1.57,1.57,0,0,0,85.55,20a2.34,2.34,0,0,0,.18-.58,3.36,3.36,0,0,0,.05-.61,3.53,3.53,0,0,0-.05-.64,2.5,2.5,0,0,0-.17-.55,1.57,1.57,0,0,0-1.45-1h-7.6a2.13,2.13,0,0,0-1.29.44,2,2,0,0,0-.75,1.67V33.08a2,2,0,0,0,.75,1.67,2.13,2.13,0,0,0,1.29.44H84.2A1.58,1.58,0,0,0,85,35a1.65,1.65,0,0,0,.58-.62,2.06,2.06,0,0,0,.23-.7,3.91,3.91,0,0,0,0-.57,4.13,4.13,0,0,0,0-.6A2,2,0,0,0,85.6,31.75Z"/><path class="cls-8" d="M109.86,25.71a6.85,6.85,0,0,0-1.43-1.09c-.47-.27-1-.52-1.43-.74l-1.33-.62a6.19,6.19,0,0,1-1-.56,1.93,1.93,0,0,1-.5-.52.87.87,0,0,1-.11-.48,1.1,1.1,0,0,1,.07-.41.65.65,0,0,1,.17-.25,1.18,1.18,0,0,1,.4-.22,3.12,3.12,0,0,1,1.66,0,5,5,0,0,1,.8.32l.64.35a2,2,0,0,0,1.07.35,1.47,1.47,0,0,0,.94-.33,1.6,1.6,0,0,0,.51-.77,2.8,2.8,0,0,0,.1-.53,5,5,0,0,0,0-.53c0-.2,0-.36,0-.49a3,3,0,0,0-.07-.44,1.91,1.91,0,0,0-.18-.48,2.08,2.08,0,0,0-.37-.47,3.15,3.15,0,0,0-.79-.53,6.94,6.94,0,0,0-1-.42,8.57,8.57,0,0,0-1.19-.29,7.81,7.81,0,0,0-3.59.22,5.79,5.79,0,0,0-2,1,4.94,4.94,0,0,0-1.35,1.76,5.45,5.45,0,0,0-.48,2.31,5.3,5.3,0,0,0,.43,2.19,5.46,5.46,0,0,0,1.07,1.58,6.88,6.88,0,0,0,1.4,1.1,15.66,15.66,0,0,0,1.44.76l1.33.62a6,6,0,0,1,1,.55,1.86,1.86,0,0,1,.49.51.9.9,0,0,1,.11.49,1.5,1.5,0,0,1-.11.61,1,1,0,0,1-.29.38,1.76,1.76,0,0,1-.58.3,2.89,2.89,0,0,1-.89.13,4.26,4.26,0,0,1-1.24-.16,6.71,6.71,0,0,1-1-.39,6.42,6.42,0,0,1-.68-.38,2.17,2.17,0,0,0-1.18-.42,1.6,1.6,0,0,0-.8.21,1.55,1.55,0,0,0-.63.72,2.23,2.23,0,0,0-.08.3l-.93-2.28c-.18-.44-.36-.84-.54-1.19a7.22,7.22,0,0,0-.64-1L97,26.42a5.33,5.33,0,0,0,1-.89A4.74,4.74,0,0,0,98.79,24a5.72,5.72,0,0,0,.28-1.84,5.82,5.82,0,0,0-.31-1.93,4.8,4.8,0,0,0-1-1.64,5.15,5.15,0,0,0-1.57-1.16,7.53,7.53,0,0,0-2-.62l-.77-.07q-.44,0-1.1,0h-3.4a2.13,2.13,0,0,0-1.29.44,2,2,0,0,0-.75,1.67V33.63a1.53,1.53,0,0,0,1.06,1.47,3.08,3.08,0,0,0,.56.13,5.41,5.41,0,0,0,1.4,0,2.88,2.88,0,0,0,.56-.14,1.59,1.59,0,0,0,.74-.54,1.53,1.53,0,0,0,.3-.92V28.06h.18a2,2,0,0,1,.77.12,1.46,1.46,0,0,1,.49.33,2.59,2.59,0,0,1,.44.63c.17.32.33.69.48,1.06l1.45,3.71a2.19,2.19,0,0,0,.27.56,1.7,1.7,0,0,0,.71.59,2.36,2.36,0,0,0,.69.18,5.81,5.81,0,0,0,.67,0,7,7,0,0,0,.73,0,2.51,2.51,0,0,0,.67-.15,1.5,1.5,0,0,0,.82-.73,1.59,1.59,0,0,0,.1-.28,4.7,4.7,0,0,0,.48.31,7,7,0,0,0,1.1.5,9.47,9.47,0,0,0,1.41.39,9,9,0,0,0,1.73.16,8.49,8.49,0,0,0,2.52-.37,6.26,6.26,0,0,0,2.16-1.15A5.57,5.57,0,0,0,110.83,32a5.9,5.9,0,0,0,.53-2.54,5.23,5.23,0,0,0-.43-2.17A5.32,5.32,0,0,0,109.86,25.71ZM91.47,20.94H92c.38,0,.68,0,.9,0a2.72,2.72,0,0,1,.47.08,1.29,1.29,0,0,1,.71.41,1.64,1.64,0,0,1,.22.91,1.71,1.71,0,0,1-.11.63,1,1,0,0,1-.27.38,1.65,1.65,0,0,1-.58.32,3.41,3.41,0,0,1-1.06.14h-.83Z"/><path class="cls-8" d="M115.48,16.79a3.07,3.07,0,0,0-.55-.13,5.2,5.2,0,0,0-1.37,0,3.36,3.36,0,0,0-.55.13,1.6,1.6,0,0,0-.79.56,1.53,1.53,0,0,0-.3.92V33.63A1.53,1.53,0,0,0,113,35.1a3.08,3.08,0,0,0,.57.13,4.79,4.79,0,0,0,.69,0,4.73,4.73,0,0,0,.7,0,3.06,3.06,0,0,0,.55-.13,1.53,1.53,0,0,0,1.06-1.47V18.26a1.55,1.55,0,0,0-.26-.86A1.57,1.57,0,0,0,115.48,16.79Z"/><path class="cls-8" d="M133.1,25.71a11.08,11.08,0,0,0-.57-3.65,7.88,7.88,0,0,0-1.75-2.9,7.68,7.68,0,0,0-2.87-1.85,11.31,11.31,0,0,0-4-.62h-3.62a2.13,2.13,0,0,0-1.29.44,2,2,0,0,0-.75,1.67V33.08a2,2,0,0,0,.75,1.67,2.13,2.13,0,0,0,1.29.44h3.39a12.26,12.26,0,0,0,3.94-.57,7.68,7.68,0,0,0,3-1.83,7.86,7.86,0,0,0,1.85-3.05A12.51,12.51,0,0,0,133.1,25.71Zm-9.24,5.21h-.94V21h.92a5.69,5.69,0,0,1,2.21.35,3.41,3.41,0,0,1,1.28.93,3.92,3.92,0,0,1,.76,1.48,7.5,7.5,0,0,1,.27,2.07,8.87,8.87,0,0,1-.3,2.47,3.9,3.9,0,0,1-.79,1.51,3,3,0,0,1-1.25.83A6.41,6.41,0,0,1,123.86,30.92Z"/><path class="cls-8" d="M142.56,17.9a1.91,1.91,0,0,0-.4-.65,1.78,1.78,0,0,0-.8-.49,3.16,3.16,0,0,0-.7-.12,12.61,12.61,0,0,0-1.45,0,3,3,0,0,0-.68.12,1.77,1.77,0,0,0-.77.47,1.87,1.87,0,0,0-.39.65L132,32.76a2.7,2.7,0,0,0-.18.82,1.55,1.55,0,0,0,.48,1.21,1.78,1.78,0,0,0,1,.44,7.34,7.34,0,0,0,1.46,0,2.3,2.3,0,0,0,.73-.19,1.72,1.72,0,0,0,.63-.5,1.89,1.89,0,0,0,.29-.55l1-3h4.88l1.08,3.06,0,.09a2.23,2.23,0,0,0,.25.43,1.62,1.62,0,0,0,.74.54,2.55,2.55,0,0,0,.67.13l.71,0a7.26,7.26,0,0,0,.75,0,1.8,1.8,0,0,0,1-.41,1.53,1.53,0,0,0,.52-1.24,2.69,2.69,0,0,0-.18-.82Zm-3.71,8.9,1-3,1,3Z"/><path class="cls-8" d="M162.41,22.06a7.88,7.88,0,0,0-1.75-2.9,7.68,7.68,0,0,0-2.87-1.85,11.31,11.31,0,0,0-4-.62h-3.62a2.13,2.13,0,0,0-1.29.44,2,2,0,0,0-.75,1.67V33.08a2,2,0,0,0,.75,1.67,2.13,2.13,0,0,0,1.29.44h3.39a12.26,12.26,0,0,0,3.94-.57,7.69,7.69,0,0,0,3-1.83,7.87,7.87,0,0,0,1.85-3.05,12.51,12.51,0,0,0,.6-4A11.09,11.09,0,0,0,162.41,22.06ZM152.8,21h.92a5.69,5.69,0,0,1,2.21.35,3.41,3.41,0,0,1,1.28.93,3.92,3.92,0,0,1,.76,1.48,7.52,7.52,0,0,1,.27,2.07,8.85,8.85,0,0,1-.3,2.47,3.91,3.91,0,0,1-.79,1.51,3,3,0,0,1-1.25.83,6.41,6.41,0,0,1-2.16.31h-.94Z"/><path class="cls-9" d="M34.45,28A7.37,7.37,0,0,1,34,30.59a5.3,5.3,0,0,1-1.21,1.92,5.11,5.11,0,0,1-1.92,1.19,7.59,7.59,0,0,1-2.57.41,7.18,7.18,0,0,1-2.4-.38,5.07,5.07,0,0,1-1.86-1.13,4.92,4.92,0,0,1-1.19-1.86,7.35,7.35,0,0,1-.42-2.58V18.29a.3.3,0,0,1,0-.17.33.33,0,0,1,.17-.12l.32-.07a3.5,3.5,0,0,1,.52,0,3.55,3.55,0,0,1,.5,0,1.71,1.71,0,0,1,.33.07.33.33,0,0,1,.17.12.31.31,0,0,1,0,.17V27.9a6.2,6.2,0,0,0,.27,1.93,3.63,3.63,0,0,0,.78,1.37,3.26,3.26,0,0,0,1.23.82,4.48,4.48,0,0,0,1.62.28A4.64,4.64,0,0,0,30.1,32a3.11,3.11,0,0,0,1.22-.81,3.64,3.64,0,0,0,.76-1.34A6,6,0,0,0,32.35,28V18.29a.3.3,0,0,1,0-.17.33.33,0,0,1,.17-.12,1.86,1.86,0,0,1,.33-.07,3.52,3.52,0,0,1,.51,0,3.42,3.42,0,0,1,.5,0,1.71,1.71,0,0,1,.32.07.37.37,0,0,1,.17.12.28.28,0,0,1,.06.17Z"/><path class="cls-9" d="M50.71,33.07a1,1,0,0,1-.08.42.83.83,0,0,1-.22.28.85.85,0,0,1-.3.16,1.17,1.17,0,0,1-.33,0h-.7a2.23,2.23,0,0,1-.58-.07,1.29,1.29,0,0,1-.47-.25,2.49,2.49,0,0,1-.45-.49,6.41,6.41,0,0,1-.48-.79l-4.88-9.11q-.38-.71-.77-1.48t-.72-1.5h0q0,.89,0,1.82t0,1.84v9.66a.3.3,0,0,1-.05.17.33.33,0,0,1-.18.12,1.89,1.89,0,0,1-.33.07,4.29,4.29,0,0,1-1,0,1.7,1.7,0,0,1-.32-.07.33.33,0,0,1-.17-.12.3.3,0,0,1-.05-.17V18.86a.83.83,0,0,1,.28-.71,1,1,0,0,1,.61-.21h1a2.61,2.61,0,0,1,.62.06,1.3,1.3,0,0,1,.45.2,1.77,1.77,0,0,1,.38.4,5.27,5.27,0,0,1,.39.64l3.75,7,.67,1.26.62,1.21L48,29.9l.58,1.16h0q0-1,0-2t0-2V18.3a.27.27,0,0,1,.05-.16.42.42,0,0,1,.18-.13,1.16,1.16,0,0,1,.33-.08,4.63,4.63,0,0,1,.53,0l.5,0a1.08,1.08,0,0,1,.33.08.42.42,0,0,1,.17.13.27.27,0,0,1,.05.16Z"/><path class="cls-9" d="M57.09,33.63a.3.3,0,0,1,0,.17.33.33,0,0,1-.17.12,1.87,1.87,0,0,1-.33.07,4.2,4.2,0,0,1-1,0,1.87,1.87,0,0,1-.33-.07A.33.33,0,0,1,55,33.8a.3.3,0,0,1,0-.17V18.26a.28.28,0,0,1,.06-.17.37.37,0,0,1,.19-.12l.33-.07a3.33,3.33,0,0,1,.49,0,3.55,3.55,0,0,1,.51,0,1.87,1.87,0,0,1,.33.07.33.33,0,0,1,.17.12.3.3,0,0,1,0,.17Z"/><path class="cls-9" d="M67.82,33.58a.6.6,0,0,1-.14.22.59.59,0,0,1-.24.14A1.79,1.79,0,0,1,67,34l-.6,0H66l-.35,0-.25-.06a.64.64,0,0,1-.18-.08.39.39,0,0,1-.12-.12.88.88,0,0,1-.08-.17L59.75,18.69a1.51,1.51,0,0,1-.11-.44.29.29,0,0,1,.11-.25.71.71,0,0,1,.36-.11q.25,0,.67,0l.55,0a1.05,1.05,0,0,1,.32.07.39.39,0,0,1,.17.13,1.05,1.05,0,0,1,.11.2l4.59,13.47h0L71,18.31a1,1,0,0,1,.09-.22.33.33,0,0,1,.17-.14,1.27,1.27,0,0,1,.35-.07l.59,0a4.66,4.66,0,0,1,.61,0,.51.51,0,0,1,.3.12.31.31,0,0,1,.06.25,2,2,0,0,1-.12.44Z"/><path class="cls-9" d="M84.63,33.07a2.69,2.69,0,0,1,0,.39.82.82,0,0,1-.09.28.42.42,0,0,1-.14.16.34.34,0,0,1-.18,0H76.52a.88.88,0,0,1-.54-.19.79.79,0,0,1-.25-.67V18.81a.79.79,0,0,1,.25-.67.88.88,0,0,1,.54-.19h7.6a.33.33,0,0,1,.18,0,.34.34,0,0,1,.13.16,1.26,1.26,0,0,1,.08.28,2.34,2.34,0,0,1,0,.41,2.18,2.18,0,0,1,0,.39,1.13,1.13,0,0,1-.08.27.35.35,0,0,1-.13.15.33.33,0,0,1-.18,0H77.85v5h5.37a.31.31,0,0,1,.18.06.46.46,0,0,1,.14.15.79.79,0,0,1,.08.27,3,3,0,0,1,0,.41,2.61,2.61,0,0,1,0,.38.77.77,0,0,1-.08.26.35.35,0,0,1-.14.14.37.37,0,0,1-.18,0H77.85v5.73H84.2a.34.34,0,0,1,.18,0,.44.44,0,0,1,.14.15.75.75,0,0,1,.09.27A2.89,2.89,0,0,1,84.63,33.07Z"/><path class="cls-9" d="M98.77,33.63a.39.39,0,0,1,0,.17.29.29,0,0,1-.16.12,1.39,1.39,0,0,1-.35.07,5.72,5.72,0,0,1-.59,0,4.6,4.6,0,0,1-.53,0,1.16,1.16,0,0,1-.33-.08.44.44,0,0,1-.19-.15,1,1,0,0,1-.12-.25L95,29.74q-.26-.64-.54-1.18a3.81,3.81,0,0,0-.66-.93,2.72,2.72,0,0,0-.9-.61,3.24,3.24,0,0,0-1.25-.22H90.23v6.82a.28.28,0,0,1-.06.17.37.37,0,0,1-.17.12,1.72,1.72,0,0,1-.32.07,4.25,4.25,0,0,1-1,0,1.87,1.87,0,0,1-.33-.07.33.33,0,0,1-.17-.12.3.3,0,0,1,0-.17V18.81a.79.79,0,0,1,.25-.67.88.88,0,0,1,.54-.19h3.4q.61,0,1,0L94,18a6.14,6.14,0,0,1,1.64.51,3.9,3.9,0,0,1,1.19.88,3.54,3.54,0,0,1,.72,1.22,4.55,4.55,0,0,1,.24,1.52,4.47,4.47,0,0,1-.22,1.44A3.49,3.49,0,0,1,97,24.73a4.14,4.14,0,0,1-1,.85,6.25,6.25,0,0,1-1.27.61,3,3,0,0,1,.72.44,3.68,3.68,0,0,1,.6.64,5.94,5.94,0,0,1,.53.85q.25.48.49,1.09l1.44,3.53q.17.45.22.62A1.13,1.13,0,0,1,98.77,33.63Zm-3.2-11.25a2.86,2.86,0,0,0-.42-1.59,2.38,2.38,0,0,0-1.41-.93,4,4,0,0,0-.7-.12q-.39,0-1,0H90.23v5.39H92.3a4.61,4.61,0,0,0,1.45-.2,2.87,2.87,0,0,0,1-.57,2.22,2.22,0,0,0,.6-.86A3,3,0,0,0,95.57,22.38Z"/><path class="cls-9" d="M110.12,29.46a4.64,4.64,0,0,1-.41,2A4.31,4.31,0,0,1,108.55,33a5,5,0,0,1-1.73.92,7.2,7.2,0,0,1-2.15.31,7.65,7.65,0,0,1-1.49-.14,8.14,8.14,0,0,1-1.23-.33,5.86,5.86,0,0,1-.9-.41,2.4,2.4,0,0,1-.51-.36.91.91,0,0,1-.21-.38,2.22,2.22,0,0,1-.07-.61,3.33,3.33,0,0,1,0-.45,1.08,1.08,0,0,1,.07-.29.32.32,0,0,1,.12-.15.34.34,0,0,1,.17,0,1,1,0,0,1,.49.21,7.62,7.62,0,0,0,.81.46,7.9,7.9,0,0,0,1.19.46,5.47,5.47,0,0,0,1.61.22,4.11,4.11,0,0,0,1.27-.19,3,3,0,0,0,1-.53,2.27,2.27,0,0,0,.64-.84,2.72,2.72,0,0,0,.22-1.13,2.11,2.11,0,0,0-.31-1.16,3.12,3.12,0,0,0-.82-.85,7.19,7.19,0,0,0-1.16-.67l-1.33-.62a14.38,14.38,0,0,1-1.32-.7,5.62,5.62,0,0,1-1.15-.9,4.19,4.19,0,0,1-.82-1.22,4.05,4.05,0,0,1-.32-1.68,4.2,4.2,0,0,1,.37-1.79,3.68,3.68,0,0,1,1-1.32,4.53,4.53,0,0,1,1.55-.81,6.51,6.51,0,0,1,1.94-.28,6.25,6.25,0,0,1,1.07.09,7.28,7.28,0,0,1,1,.25,5.67,5.67,0,0,1,.85.35,2.21,2.21,0,0,1,.49.31,1,1,0,0,1,.15.19.71.71,0,0,1,.06.17,1.76,1.76,0,0,1,0,.25c0,.1,0,.23,0,.38a3.8,3.8,0,0,1,0,.4,1.56,1.56,0,0,1-.06.29.36.36,0,0,1-.11.17.24.24,0,0,1-.15.06,1,1,0,0,1-.43-.17l-.71-.39a6.25,6.25,0,0,0-1-.4,4.35,4.35,0,0,0-1.29-.18,3.42,3.42,0,0,0-1.16.18,2.38,2.38,0,0,0-.82.48,1.89,1.89,0,0,0-.48.71,2.33,2.33,0,0,0-.16.87,2.09,2.09,0,0,0,.31,1.15,3.16,3.16,0,0,0,.82.85,7.34,7.34,0,0,0,1.17.68l1.34.62q.68.32,1.34.69a5.58,5.58,0,0,1,1.17.89,4.06,4.06,0,0,1,.83,1.21A4,4,0,0,1,110.12,29.46Z"/><path class="cls-9" d="M115.29,33.63a.3.3,0,0,1,0,.17.33.33,0,0,1-.17.12,1.87,1.87,0,0,1-.33.07,4.2,4.2,0,0,1-1,0,1.87,1.87,0,0,1-.33-.07.33.33,0,0,1-.17-.12.3.3,0,0,1,0-.17V18.26a.28.28,0,0,1,.06-.17.37.37,0,0,1,.19-.12l.33-.07a3.33,3.33,0,0,1,.49,0,3.55,3.55,0,0,1,.51,0,1.87,1.87,0,0,1,.33.07.33.33,0,0,1,.17.12.3.3,0,0,1,0,.17Z"/><path class="cls-9" d="M131.86,25.71a11.22,11.22,0,0,1-.53,3.63,6.59,6.59,0,0,1-1.55,2.57,6.42,6.42,0,0,1-2.51,1.53,11,11,0,0,1-3.54.51h-3.39a.88.88,0,0,1-.54-.19.79.79,0,0,1-.25-.67V18.81a.79.79,0,0,1,.25-.67.88.88,0,0,1,.54-.19H124a10,10,0,0,1,3.51.54A6.41,6.41,0,0,1,129.88,20a6.61,6.61,0,0,1,1.47,2.44A9.8,9.8,0,0,1,131.86,25.71Zm-2.24.09a8.72,8.72,0,0,0-.32-2.42,5.2,5.2,0,0,0-1-1.94,4.66,4.66,0,0,0-1.74-1.27,6.85,6.85,0,0,0-2.71-.46h-2.16V32.17h2.19a7.6,7.6,0,0,0,2.59-.38,4.26,4.26,0,0,0,1.76-1.18,5.11,5.11,0,0,0,1.06-2A10,10,0,0,0,129.62,25.8Z"/><path class="cls-9" d="M146.75,33.19a1.53,1.53,0,0,1,.11.44.3.3,0,0,1-.09.25.6.6,0,0,1-.33.11,6.08,6.08,0,0,1-.61,0l-.61,0a1.38,1.38,0,0,1-.35-.06.37.37,0,0,1-.17-.12,1,1,0,0,1-.11-.19l-1.37-3.9h-6.66l-1.31,3.85a.66.66,0,0,1-.1.19.48.48,0,0,1-.18.14,1.1,1.1,0,0,1-.33.08,5.24,5.24,0,0,1-.56,0,4.56,4.56,0,0,1-.59,0,.59.59,0,0,1-.32-.12.31.31,0,0,1-.09-.25,1.55,1.55,0,0,1,.11-.44l5.37-14.87a.64.64,0,0,1,.13-.22.54.54,0,0,1,.24-.14,1.8,1.8,0,0,1,.4-.07l.61,0,.66,0A2,2,0,0,1,141,18a.56.56,0,0,1,.25.14.67.67,0,0,1,.14.23Zm-6.89-13.13h0l-2.76,8h5.57Z"/><path class="cls-9" d="M161.73,25.71a11.22,11.22,0,0,1-.53,3.63,6.59,6.59,0,0,1-1.55,2.57,6.42,6.42,0,0,1-2.51,1.53,11,11,0,0,1-3.54.51h-3.39a.88.88,0,0,1-.54-.19.79.79,0,0,1-.25-.67V18.81a.79.79,0,0,1,.25-.67.88.88,0,0,1,.54-.19h3.62a10,10,0,0,1,3.51.54A6.41,6.41,0,0,1,159.76,20a6.61,6.61,0,0,1,1.47,2.44A9.8,9.8,0,0,1,161.73,25.71Zm-2.24.09a8.72,8.72,0,0,0-.32-2.42,5.2,5.2,0,0,0-1-1.94,4.66,4.66,0,0,0-1.74-1.27,6.85,6.85,0,0,0-2.71-.46h-2.16V32.17h2.19a7.6,7.6,0,0,0,2.59-.38,4.26,4.26,0,0,0,1.76-1.18,5.11,5.11,0,0,0,1.06-2A10,10,0,0,0,159.49,25.8Z"/><path class="cls-10" d="M114.11,53.08h0Z"/><path class="cls-11" d="M113.66,53h0l.15,0Z"/><path class="cls-9" d="M125,47.84q0,.1,0,.17a.82.82,0,0,1,0,.12.34.34,0,0,1,0,.09l-.07.08a.84.84,0,0,1-.18.12,2.09,2.09,0,0,1-.32.14,2.81,2.81,0,0,1-.43.11,2.88,2.88,0,0,1-.52,0,2.79,2.79,0,0,1-1-.17,2,2,0,0,1-.75-.5,2.21,2.21,0,0,1-.47-.83,3.64,3.64,0,0,1-.17-1.15,3.59,3.59,0,0,1,.18-1.19,2.47,2.47,0,0,1,.51-.87,2.13,2.13,0,0,1,.78-.54,2.68,2.68,0,0,1,1-.18,2.46,2.46,0,0,1,.43,0l.38.1a1.94,1.94,0,0,1,.32.14,1,1,0,0,1,.2.13l.08.09a.34.34,0,0,1,0,.09,1,1,0,0,1,0,.13q0,.08,0,.19t0,.21a.53.53,0,0,1,0,.14.19.19,0,0,1,0,.08l-.07,0a.29.29,0,0,1-.16-.07l-.25-.16a2,2,0,0,0-.36-.16,1.55,1.55,0,0,0-.5-.07,1.23,1.23,0,0,0-.57.13,1.21,1.21,0,0,0-.43.37,1.7,1.7,0,0,0-.27.57,3.29,3.29,0,0,0,0,1.56,1.54,1.54,0,0,0,.28.56,1.12,1.12,0,0,0,.43.33,1.45,1.45,0,0,0,.57.11,1.65,1.65,0,0,0,.5-.07,2.12,2.12,0,0,0,.36-.15l.25-.15a.31.31,0,0,1,.15-.06l.07,0a.12.12,0,0,1,0,.06.63.63,0,0,1,0,.14Q125,47.69,125,47.84Z"/><path class="cls-9" d="M130.14,48.24a1.4,1.4,0,0,1,.06.23.14.14,0,0,1,0,.13.27.27,0,0,1-.16.05h-.65l-.18,0a.16.16,0,0,1-.09-.05.27.27,0,0,1,0-.09l-.36-1.05h-2l-.34,1a.32.32,0,0,1,0,.1.18.18,0,0,1-.09.06l-.17,0h-.58a.23.23,0,0,1-.15-.06.16.16,0,0,1,0-.13,1.31,1.31,0,0,1,.06-.23L127,43.57a.4.4,0,0,1,.06-.11.21.21,0,0,1,.11-.06l.2,0h.73l.22,0a.22.22,0,0,1,.12.07.39.39,0,0,1,.06.12Zm-2.45-3.85h0l-.76,2.23h1.51Z"/><path class="cls-9" d="M137.11,48.49a.12.12,0,0,1,0,.07.16.16,0,0,1-.08.05l-.16,0h-.5l-.16,0a.17.17,0,0,1-.08-.05.12.12,0,0,1,0-.07V44.21h0l-1.55,4.27a.2.2,0,0,1-.05.09l-.1.05-.16,0h-.48l-.16,0-.1-.05a.16.16,0,0,1,0-.08l-1.49-4.27h0v4.27a.12.12,0,0,1,0,.07.16.16,0,0,1-.08.05l-.16,0h-.5l-.16,0a.16.16,0,0,1-.08-.05.12.12,0,0,1,0-.07V43.81a.42.42,0,0,1,.11-.32.41.41,0,0,1,.3-.11H132a1.51,1.51,0,0,1,.33,0,.64.64,0,0,1,.24.1.58.58,0,0,1,.17.19,1.33,1.33,0,0,1,.12.29L134,47.12h0l1.2-3.12a1.63,1.63,0,0,1,.12-.29.67.67,0,0,1,.15-.19.49.49,0,0,1,.2-.1,1.06,1.06,0,0,1,.27,0h.73a.58.58,0,0,1,.19,0,.33.33,0,0,1,.13.08.36.36,0,0,1,.08.13.56.56,0,0,1,0,.18Z"/><path class="cls-9" d="M141.44,48.22a1.57,1.57,0,0,1,0,.2.5.5,0,0,1,0,.13.16.16,0,0,1-.05.07l-.07,0H138.6a.34.34,0,0,1-.23-.08.32.32,0,0,1-.09-.26V43.72a.32.32,0,0,1,.09-.26.34.34,0,0,1,.23-.08h2.67l.07,0a.16.16,0,0,1,0,.07.53.53,0,0,1,0,.13,1.61,1.61,0,0,1,0,.2,1.53,1.53,0,0,1,0,.19.5.5,0,0,1,0,.13.17.17,0,0,1,0,.07l-.07,0h-1.91V45.5H141l.07,0a.17.17,0,0,1,.05.07.47.47,0,0,1,0,.13,1.82,1.82,0,0,1,0,.39.47.47,0,0,1,0,.12.15.15,0,0,1-.05.07l-.07,0h-1.61V47.8h1.92l.07,0a.16.16,0,0,1,.05.07.5.5,0,0,1,0,.13A1.57,1.57,0,0,1,141.44,48.22Z"/><path class="cls-9" d="M146.36,48.5a.16.16,0,0,1,0,.08.13.13,0,0,1-.08.05l-.18,0h-.6l-.16,0a.18.18,0,0,1-.08-.06.31.31,0,0,1,0-.08l-.48-1.17q-.09-.2-.17-.35a1.13,1.13,0,0,0-.18-.26.67.67,0,0,0-.23-.16.82.82,0,0,0-.31-.05h-.34v2a.11.11,0,0,1,0,.07.19.19,0,0,1-.09.05l-.17,0h-.53l-.17,0a.17.17,0,0,1-.09-.05.12.12,0,0,1,0-.07V43.72a.32.32,0,0,1,.09-.26.34.34,0,0,1,.23-.08h1.73l.25,0a2.28,2.28,0,0,1,.58.15,1.39,1.39,0,0,1,.44.29,1.19,1.19,0,0,1,.27.42,1.51,1.51,0,0,1,.09.55,1.6,1.6,0,0,1-.07.48,1.23,1.23,0,0,1-.2.39,1.31,1.31,0,0,1-.33.3,1.78,1.78,0,0,1-.44.2,1.24,1.24,0,0,1,.22.14,1.18,1.18,0,0,1,.2.2,1.89,1.89,0,0,1,.18.26,3.4,3.4,0,0,1,.16.33l.45,1,.08.23A.43.43,0,0,1,146.36,48.5ZM145,44.93a.77.77,0,0,0-.12-.44.65.65,0,0,0-.39-.25l-.19,0h-.78v1.49H144a1.35,1.35,0,0,0,.4-.05.81.81,0,0,0,.29-.15.63.63,0,0,0,.17-.24A.79.79,0,0,0,145,44.93Z"/><path class="cls-9" d="M150.24,47.06a1.6,1.6,0,0,1-.16.73,1.51,1.51,0,0,1-.43.52,1.86,1.86,0,0,1-.63.31,2.71,2.71,0,0,1-.77.11,2.78,2.78,0,0,1-.51,0,3,3,0,0,1-.42-.11,1.84,1.84,0,0,1-.3-.13.87.87,0,0,1-.18-.12.3.3,0,0,1-.08-.15,1.37,1.37,0,0,1,0-.29q0-.13,0-.21a.6.6,0,0,1,0-.14.15.15,0,0,1,0-.08l.07,0a.35.35,0,0,1,.16.07l.27.15a2.46,2.46,0,0,0,.39.15,1.9,1.9,0,0,0,.53.07,1.24,1.24,0,0,0,.35,0,.8.8,0,0,0,.27-.13.56.56,0,0,0,.17-.21.66.66,0,0,0,.06-.28.49.49,0,0,0-.1-.31,1,1,0,0,0-.26-.23,2.69,2.69,0,0,0-.36-.19l-.42-.18a3.83,3.83,0,0,1-.42-.22,1.68,1.68,0,0,1-.36-.3,1.39,1.39,0,0,1-.26-.41,1.45,1.45,0,0,1-.1-.56,1.47,1.47,0,0,1,.14-.66,1.36,1.36,0,0,1,.38-.47,1.64,1.64,0,0,1,.57-.28,2.53,2.53,0,0,1,.7-.09l.38,0,.35.08.29.11a.69.69,0,0,1,.17.1l.06.07a.33.33,0,0,1,0,.08.78.78,0,0,1,0,.12s0,.11,0,.18,0,.14,0,.2a.73.73,0,0,1,0,.13.16.16,0,0,1,0,.08.1.1,0,0,1-.07,0,.35.35,0,0,1-.14-.06l-.24-.12-.33-.12a1.5,1.5,0,0,0-.42-.05,1,1,0,0,0-.31,0,.64.64,0,0,0-.22.12.47.47,0,0,0-.13.18.58.58,0,0,0,0,.22.49.49,0,0,0,.1.3.92.92,0,0,0,.26.23,2.8,2.8,0,0,0,.37.19l.42.18a4.18,4.18,0,0,1,.42.22,1.69,1.69,0,0,1,.37.3,1.38,1.38,0,0,1,.26.41A1.4,1.4,0,0,1,150.24,47.06Z"/><path class="cls-9" d="M155.42,46.68a2.43,2.43,0,0,1-.14.86,1.69,1.69,0,0,1-.43.65,1.85,1.85,0,0,1-.69.4,3,3,0,0,1-.95.14,3.06,3.06,0,0,1-.9-.12,1.76,1.76,0,0,1-.68-.38,1.64,1.64,0,0,1-.42-.63,2.41,2.41,0,0,1-.15-.88V43.53a.12.12,0,0,1,0-.07.18.18,0,0,1,.09-.05l.17,0h.52l.17,0a.19.19,0,0,1,.09.05.11.11,0,0,1,0,.07v3.1a1.68,1.68,0,0,0,.08.54,1,1,0,0,0,.22.38.93.93,0,0,0,.35.23,1.31,1.31,0,0,0,.46.08,1.28,1.28,0,0,0,.46-.08.91.91,0,0,0,.34-.23,1,1,0,0,0,.22-.37,1.48,1.48,0,0,0,.08-.49V43.53a.12.12,0,0,1,0-.07.17.17,0,0,1,.09-.05l.17,0h.52l.16,0a.17.17,0,0,1,.09.05.12.12,0,0,1,0,.07Z"/><path class="cls-9" d="M160.55,48.5a.16.16,0,0,1,0,.08.13.13,0,0,1-.08.05l-.18,0h-.6l-.16,0a.18.18,0,0,1-.08-.06.31.31,0,0,1,0-.08l-.48-1.17q-.09-.2-.17-.35a1.13,1.13,0,0,0-.18-.26.67.67,0,0,0-.23-.16.82.82,0,0,0-.31-.05h-.34v2a.11.11,0,0,1,0,.07.19.19,0,0,1-.09.05l-.17,0h-.53l-.17,0a.17.17,0,0,1-.09-.05.12.12,0,0,1,0-.07V43.72a.32.32,0,0,1,.09-.26.34.34,0,0,1,.23-.08h1.73l.25,0a2.28,2.28,0,0,1,.58.15,1.39,1.39,0,0,1,.44.29,1.19,1.19,0,0,1,.27.42,1.51,1.51,0,0,1,.09.55,1.6,1.6,0,0,1-.07.48,1.23,1.23,0,0,1-.2.39,1.31,1.31,0,0,1-.33.3,1.78,1.78,0,0,1-.44.2,1.24,1.24,0,0,1,.22.14,1.18,1.18,0,0,1,.2.2,1.89,1.89,0,0,1,.18.26,3.4,3.4,0,0,1,.16.33l.45,1,.08.23A.43.43,0,0,1,160.55,48.5Zm-1.4-3.56a.77.77,0,0,0-.12-.44.65.65,0,0,0-.39-.25l-.19,0h-.78v1.49h.55a1.35,1.35,0,0,0,.4-.05.81.81,0,0,0,.29-.15.63.63,0,0,0,.17-.24A.79.79,0,0,0,159.15,44.93Z"/><path class="cls-12" d="M116.59,52.17a1.56,1.56,0,0,1-.58.06,3.36,3.36,0,0,1-.73-.14,6.43,6.43,0,0,1-1-.38,11.61,11.61,0,0,1-1.7-1,24.6,24.6,0,0,1-2.32-2.16c-1.37-1.14-2.73-.45-3,.4a2.11,2.11,0,0,1,2,.51,24.59,24.59,0,0,0,2.32,2.16A9.36,9.36,0,0,0,114.32,53l.43.1.3,0a1.56,1.56,0,0,0,.58-.06.92.92,0,0,0,.2-.1l.05,0,.07,0a4.7,4.7,0,0,0,.49-.43,4.65,4.65,0,0,0,.4-.43A.89.89,0,0,1,116.59,52.17Z"/><path class="cls-13" d="M115.64,53.08a1.28,1.28,0,0,1-.27.06h-.46l-.15,0-.43-.1a9.36,9.36,0,0,1-2.67-1.41,24.59,24.59,0,0,1-2.32-2.16,2.11,2.11,0,0,0-2-.51,1,1,0,0,0,0,.19,1.36,1.36,0,0,0,.43,1,25.22,25.22,0,0,0,2.38,2.21,9.63,9.63,0,0,0,2.75,1.45,3.41,3.41,0,0,0,.76.14h.12a1.58,1.58,0,0,0,.38,0s0,0,0,0,0-.07,0,0v0l0,0h0l.07,0h0l.2-.08.1,0,.25-.12a8.13,8.13,0,0,0,.86-.5l.23-.16A.92.92,0,0,1,115.64,53.08Z"/><path class="cls-14" d="M114.66,43a31.64,31.64,0,0,0-2.55-2.64,9.14,9.14,0,0,0-2.57-1.64,3.33,3.33,0,0,0-.74-.19h-.51l-.27.13a7.7,7.7,0,0,0-.77.47l-.56.44-.15.14-.07.07a.91.91,0,0,1,.32-.15,1.57,1.57,0,0,1,.59,0,3.28,3.28,0,0,1,.72.19,5.86,5.86,0,0,1,.76.35,10.61,10.61,0,0,1,1.75,1.24A31.05,31.05,0,0,1,113.1,44a2.18,2.18,0,0,0,1.54.7,1.18,1.18,0,0,0,.34-.61A1.31,1.31,0,0,0,114.66,43Z"/><path class="cls-15" d="M115.81,42.56a31.64,31.64,0,0,0-2.55-2.64,9.14,9.14,0,0,0-2.57-1.64,3.33,3.33,0,0,0-.74-.19h-.37l-.2,0h-.11l-.17.06c-.48.18-.55.21-.75.3l-.07,0h.52a3.33,3.33,0,0,1,.74.19,9.14,9.14,0,0,1,2.57,1.64A31.64,31.64,0,0,1,114.66,43a1.31,1.31,0,0,1,.32,1.07,1.18,1.18,0,0,1-.34.61h.14a1.13,1.13,0,0,0,.66-.2,1.49,1.49,0,0,0,.31-.23,1.19,1.19,0,0,0,.38-.62A1.31,1.31,0,0,0,115.81,42.56Z"/><path class="cls-16" d="M112.34,41.66a2.23,2.23,0,0,0-1.57.18l-1.66.77a21.22,21.22,0,0,0-2.87,1.77A10.26,10.26,0,0,0,103.6,47a3.14,3.14,0,0,0-.36.8,1,1,0,0,0,0,.13h0a3.15,3.15,0,0,0,0,.44h0l0,.21h0l.06.2a7.88,7.88,0,0,0,.54,1.29,8.07,8.07,0,0,0,1.06,1.55l.08.09.43.44a1,1,0,0,1-.28-.51,1.42,1.42,0,0,1,0-.67,3.09,3.09,0,0,1,.35-.78,10,10,0,0,1,2.57-2.56,20.47,20.47,0,0,1,2.79-1.72l.21-.14,1.19-.71a12.93,12.93,0,0,0,1.16-.77A1.77,1.77,0,0,0,112.34,41.66Z"/><path class="cls-17" d="M108.78,40.14a2,2,0,0,1-.22-1.08,1.55,1.55,0,0,1,.17-.54.82.82,0,0,1,.48-.39h0l-.17.06a6,6,0,0,0-.81.34l-.27.13a7.7,7.7,0,0,0-.77.47l-.56.44-.15.14-.07.07-.13.12a1.09,1.09,0,0,0-.27.69c-.22,2.69,6.4,7.53,8.24,11.12a4.28,4.28,0,0,1,.43,1.2,1.06,1.06,0,0,1,0,.2.83.83,0,0,1-.06.31l-.05.1-.09.11-.13.13-.22.14.2-.08.1,0,.25-.12a8.13,8.13,0,0,0,.86-.5l.23-.16-.06,0,.06,0,.12-.09a4.7,4.7,0,0,0,.49-.43,4.65,4.65,0,0,0,.4-.43l0,0a1.11,1.11,0,0,0,.18-.36,2.35,2.35,0,0,0,0-.23l0-.19C117.36,48.74,110.16,43.24,108.78,40.14Z"/><path class="cls-18" d="M108.78,40.14a2,2,0,0,1-.22-1.08,1.55,1.55,0,0,1,.17-.54.82.82,0,0,1,.48-.39h0l-.17.06a6,6,0,0,0-.81.34l-.27.13a7.7,7.7,0,0,0-.77.47l-.56.44-.15.14-.07.07-.13.12a1.09,1.09,0,0,0-.27.69c-.22,2.69,6.4,7.53,8.24,11.12a4.28,4.28,0,0,1,.43,1.2,1.06,1.06,0,0,1,0,.2.83.83,0,0,1-.06.31l-.05.1-.09.11-.13.13-.22.14.2-.08.1,0,.25-.12a8.13,8.13,0,0,0,.86-.5l.23-.16-.06,0,.06,0,.12-.09a4.7,4.7,0,0,0,.49-.43,4.65,4.65,0,0,0,.4-.43l0,0a1.11,1.11,0,0,0,.18-.36,2.35,2.35,0,0,0,0-.23l0-.19C117.36,48.74,110.16,43.24,108.78,40.14Z"/><path class="cls-19" d="M119,45.13l-.08-.43a7.76,7.76,0,0,0-.41-1.32c-.09-.22-.17-.42-.27-.63a14.39,14.39,0,0,0-.84-1.27l0,.1c.09.17.22.37.26.48a5.54,5.54,0,0,1,.34,1.13l.08.43c.12.79-.59,2-2,3.21-.28.24-.59.49-.93.74-3.17,2.33-7.53,3.91-9.74,3.52a1.8,1.8,0,0,1-1-.42A5.45,5.45,0,0,1,103.34,49a8.46,8.46,0,0,0,.48,1.11,8.06,8.06,0,0,0,1.06,1.55l.06.07c-.12-.14-.43-.53,0,0l.43.44a1.8,1.8,0,0,0,1,.42c2.21.39,6.57-1.18,9.74-3.52.34-.25.65-.5.93-.74C118.45,47.08,119.17,45.92,119,45.13Z"/><path class="cls-4" d="M118.18,43.61l-.08-.43a5.54,5.54,0,0,0-.34-1.13c0-.11-.17-.31-.26-.48l-.08-.16c.17.75-.37,1.81-1.67,3l-.19.17-.17.15q-.44.38-1,.76c-3.26,2.4-7.74,4-10,3.62a3.24,3.24,0,0,1-1.18-.51h0v0l0,.13.06.19a5.45,5.45,0,0,0,1.17,1.68,1.8,1.8,0,0,0,1,.42c2.21.39,6.57-1.18,9.74-3.52.34-.25.65-.5.93-.74C117.59,45.57,118.3,44.41,118.18,43.61Z"/><path class="cls-20" d="M119,45.13l-.08-.43a7.76,7.76,0,0,0-.41-1.32c-.09-.22-.17-.42-.27-.63a14.39,14.39,0,0,0-.84-1.27l0,.1-.08-.16c.17.75-.37,1.81-1.67,3l-.19.17-.17.15q-.44.38-1,.76c-3.26,2.4-7.74,4-10,3.62a3.24,3.24,0,0,1-1.18-.51h0l0-.06v0h0l0,.07a2.51,2.51,0,0,0,.1.31,8.46,8.46,0,0,0,.48,1.11,8.06,8.06,0,0,0,1.06,1.55l.06.07c-.12-.14-.43-.53,0,0l.43.44a1.8,1.8,0,0,0,1,.42c2.21.39,6.57-1.18,9.74-3.52.34-.25.65-.5.93-.74C118.41,47.08,119.12,45.92,119,45.13Z"/><path class="cls-21" d="M105.5,51.66l0,0Z"/><rect class="cls-22" x="101.18" y="36.09" width="61.51" height="19.84"/></g></g></svg>